<svg
  width="27"
  height="27"
  viewBox="0 0 27 27"
  fill="none"
  xmlns="http://www.w3.org/2000/svg"
>
  <path
    d="M9.3125 13.2568H3.5375C2.80243 13.2568 2.4349 13.2568 2.15414 13.3999C1.90717 13.5257 1.70639 13.7265 1.58055 13.9735C1.4375 14.2542 1.4375 14.6218 1.4375 15.3568V22.9693C1.4375 23.7044 1.4375 24.0719 1.58055 24.3527C1.70639 24.5997 1.90717 24.8004 2.15414 24.9263C2.4349 25.0693 2.80243 25.0693 3.5375 25.0693H9.3125M9.3125 25.0693H17.1875M9.3125 25.0693L9.3125 8.79434C9.3125 8.05927 9.3125 7.69173 9.45555 7.41097C9.58139 7.16401 9.78217 6.96322 10.0291 6.83739C10.3099 6.69434 10.6774 6.69434 11.4125 6.69434H15.0875C15.8226 6.69434 16.1901 6.69434 16.4709 6.83739C16.7178 6.96322 16.9186 7.16401 17.0444 7.41097C17.1875 7.69173 17.1875 8.05927 17.1875 8.79434V25.0693M17.1875 25.0693H22.9625C23.6976 25.0693 24.0651 25.0693 24.3459 24.9263C24.5928 24.8004 24.7936 24.5997 24.9194 24.3527C25.0625 24.0719 25.0625 23.7044 25.0625 22.9693V3.54434C25.0625 2.80927 25.0625 2.44173 24.9194 2.16097C24.7936 1.91401 24.5928 1.71322 24.3459 1.58739C24.0651 1.44434 23.6976 1.44434 22.9625 1.44434H19.2875C18.5524 1.44434 18.1849 1.44434 17.9041 1.58739C17.6572 1.71322 17.4564 1.91401 17.3306 2.16097C17.1875 2.44173 17.1875 2.80927 17.1875 3.54434V8.00684"
    stroke="url(#paint0_linear_1055_186)"
    stroke-width="2"
    stroke-linecap="round"
    stroke-linejoin="round"
  />
  <defs>
    <linearGradient
      id="paint0_linear_1055_186"
      x1="13.25"
      y1="1.44434"
      x2="13.25"
      y2="25.0693"
      gradientUnits="userSpaceOnUse"
    >
      <stop stop-color="#3691FF" />
      <stop offset="1" stop-color="#031EE5" />
    </linearGradient>
  </defs>
</svg>
