
<svg width="25" height="25" viewBox="0 0 25 25" fill="none" xmlns="http://www.w3.org/2000/svg">
<path d="M10.9167 3.50667H7.45C5.62983 3.50667 4.71974 3.50667 4.02453 3.8609C3.413 4.17249 2.91582 4.66968 2.60423 5.2812C2.25 5.97642 2.25 6.8865 2.25 8.70667V17.8067C2.25 19.6268 2.25 20.5369 2.60423 21.2321C2.91582 21.8437 3.413 22.3409 4.02453 22.6524C4.71974 23.0067 5.62983 23.0067 7.45 23.0067H16.55C18.3702 23.0067 19.2803 23.0067 19.9755 22.6524C20.587 22.3409 21.0842 21.8437 21.3958 21.2321C21.75 20.5369 21.75 19.6268 21.75 17.8067V14.34M12 8.92334H16.3333V13.2567M15.7917 4.04834V2.42334M20.0593 5.19739L21.2083 4.04834M21.2194 9.46501H22.8444M2.25 14.716C2.95627 14.8251 3.67986 14.8817 4.41667 14.8817C9.16856 14.8817 13.3708 12.5282 15.9213 8.92334" stroke="url(#paint0_linear_1055_40)" stroke-width="2.88889" stroke-linecap="round" stroke-linejoin="round"/>
<defs>
<linearGradient id="paint0_linear_1055_40" x1="12.5472" y1="2.42334" x2="12.5472" y2="23.0067" gradientUnits="userSpaceOnUse">
<stop stop-color="#3691FF"/>
<stop offset="1" stop-color="#031EE5"/>
</linearGradient>
</defs>
</svg>
