<svg width="128" height="28" viewBox="0 0 128 28" fill="none" xmlns="http://www.w3.org/2000/svg">
<path d="M13.7343 26.9998C20.9139 26.9998 26.7342 21.1796 26.7342 13.9999C26.7342 6.82025 20.9139 1 13.7343 1C6.55463 1 0.734375 6.82025 0.734375 13.9999C0.734375 21.1796 6.55463 26.9998 13.7343 26.9998Z" stroke="black" stroke-width="0.846899" stroke-miterlimit="5.02"/>
<path d="M31.5469 7.64297H41.3525V10.3809H34.7305V13.8617H40.164V16.4723H34.7305V22.5H31.5469V7.64297ZM52.6542 11.5907V22.5H50.0011L49.7252 21.1841C49.3432 21.6369 48.8975 21.9906 48.3881 22.2453C47.8787 22.5 47.2561 22.6273 46.5203 22.6273C45.2469 22.6273 44.2069 22.2382 43.4004 21.46C42.5938 20.6676 42.1906 19.3517 42.1906 17.5123V11.5907H45.1832V17.1515C45.1832 18.1419 45.353 18.8919 45.6926 19.4012C46.0463 19.8965 46.584 20.1441 47.3056 20.1441C48.0556 20.1441 48.6357 19.8682 49.046 19.3164C49.4564 18.7504 49.6615 17.9651 49.6615 16.9604V11.5907H52.6542ZM55.5181 14.1164H53.7141V11.5907H55.5181V8.53439H58.5108V11.5907H60.994V14.1164H58.5108V18.8919C58.5108 19.2739 58.5886 19.5498 58.7442 19.7196C58.914 19.8894 59.1899 19.9743 59.572 19.9743H61.1213V22.5H58.6381C56.5581 22.5 55.5181 21.46 55.5181 19.38V14.1164ZM72.6556 11.5907V22.5H70.0026L69.7267 21.1841C69.3446 21.6369 68.8989 21.9906 68.3895 22.2453C67.8801 22.5 67.2576 22.6273 66.5218 22.6273C65.2483 22.6273 64.2083 22.2382 63.4018 21.46C62.5953 20.6676 62.192 19.3517 62.192 17.5123V11.5907H65.1846V17.1515C65.1846 18.1419 65.3544 18.8919 65.694 19.4012C66.0478 19.8965 66.5855 20.1441 67.3071 20.1441C68.057 20.1441 68.6371 19.8682 69.0475 19.3164C69.4578 18.7504 69.663 17.9651 69.663 16.9604V11.5907H72.6556ZM81.3795 11.5907V14.3074H80.1909C79.3419 14.3074 78.7194 14.5621 78.3232 15.0715C77.927 15.5809 77.7289 16.2742 77.7289 17.1515V22.5H74.7363V11.5907H77.453L77.7289 13.225C78.0543 12.6873 78.4576 12.284 78.9387 12.0152C79.4198 11.7322 80.0636 11.5907 80.8701 11.5907H81.3795ZM81.9393 17.0666C81.9393 15.9346 82.1657 14.9512 82.6184 14.1164C83.0854 13.2674 83.7292 12.6165 84.5499 12.1638C85.3847 11.6968 86.3468 11.4633 87.4364 11.4633C88.54 11.4633 89.5093 11.6827 90.3441 12.1213C91.1931 12.5458 91.851 13.1542 92.318 13.9466C92.799 14.7248 93.0467 15.6445 93.0608 16.7058C93.0608 17.0878 93.0325 17.4274 92.9759 17.7245H85.0592V17.8094C85.13 18.6018 85.3847 19.2244 85.8233 19.6772C86.262 20.1299 86.8633 20.3563 87.6274 20.3563C88.2358 20.3563 88.7381 20.229 89.1343 19.9743C89.5446 19.7055 89.8135 19.3164 89.9408 18.807H92.891C92.7778 19.5286 92.5019 20.1795 92.0633 20.7596C91.6246 21.3397 91.0445 21.7996 90.3229 22.1392C89.6012 22.4646 88.7735 22.6273 87.8396 22.6273C86.6228 22.6273 85.5686 22.401 84.6772 21.9482C83.7999 21.4954 83.1208 20.8516 82.6397 20.0168C82.1727 19.1678 81.9393 18.1844 81.9393 17.0666ZM90.0682 15.7719C89.9691 15.1069 89.6932 14.5975 89.2404 14.2437C88.8018 13.8758 88.2429 13.6919 87.5637 13.6919C86.9128 13.6919 86.361 13.8829 85.9082 14.265C85.4696 14.6328 85.2078 15.1352 85.1229 15.7719H90.0682ZM97.0541 18.8706C97.0966 19.3517 97.3301 19.7408 97.7545 20.038C98.179 20.3351 98.7238 20.4837 99.3888 20.4837C100.026 20.4837 100.528 20.3846 100.896 20.1865C101.264 19.9743 101.448 19.6772 101.448 19.2951C101.448 19.0121 101.363 18.7999 101.193 18.6584C101.023 18.5169 100.783 18.4179 100.471 18.3613C100.16 18.2905 99.6506 18.2127 98.9431 18.1278C97.9809 18.0004 97.1815 17.8377 96.5448 17.6396C95.908 17.4415 95.3986 17.1302 95.0166 16.7058C94.6346 16.2813 94.4435 15.7153 94.4435 15.0078C94.4435 14.3003 94.6346 13.6778 95.0166 13.1401C95.4128 12.5882 95.9646 12.1638 96.6721 11.8666C97.3796 11.5695 98.1932 11.4209 99.1129 11.4209C100.599 11.435 101.794 11.7534 102.7 12.376C103.62 12.9986 104.115 13.8617 104.186 14.9654H101.341C101.299 14.555 101.08 14.2225 100.683 13.9678C100.301 13.699 99.8062 13.5646 99.1978 13.5646C98.6318 13.5646 98.172 13.6707 97.8182 13.8829C97.4786 14.0952 97.3088 14.3782 97.3088 14.7319C97.3088 14.9866 97.4008 15.1776 97.5847 15.305C97.7687 15.4323 98.0092 15.5243 98.3064 15.5809C98.6035 15.6375 99.0987 15.7011 99.7921 15.7719C101.264 15.9417 102.389 16.26 103.167 16.727C103.959 17.1798 104.355 17.9651 104.355 19.0829C104.355 19.7904 104.143 20.4129 103.719 20.9506C103.308 21.4883 102.728 21.9057 101.978 22.2029C101.242 22.4859 100.386 22.6273 99.41 22.6273C97.896 22.6273 96.665 22.2948 95.717 21.6298C94.769 20.9506 94.2667 20.0309 94.2101 18.8706H97.0541ZM105.739 20.8657C105.739 20.3422 105.908 19.9177 106.248 19.5923C106.588 19.2527 107.019 19.0829 107.543 19.0829C108.052 19.0829 108.477 19.2527 108.816 19.5923C109.17 19.9319 109.347 20.3563 109.347 20.8657C109.347 21.3751 109.17 21.7996 108.816 22.1392C108.477 22.4646 108.052 22.6273 107.543 22.6273C107.019 22.6273 106.588 22.4646 106.248 22.1392C105.908 21.7996 105.739 21.3751 105.739 20.8657ZM121.955 19.9743V22.5H120.427C119.054 22.5 118.382 21.9057 118.411 20.7172C118.014 21.3397 117.526 21.8137 116.946 22.1392C116.366 22.4646 115.666 22.6273 114.845 22.6273C113.628 22.6273 112.645 22.3514 111.895 21.7996C111.159 21.2336 110.791 20.4412 110.791 19.4225C110.791 18.2622 111.216 17.3708 112.065 16.7482C112.928 16.1115 114.173 15.7931 115.8 15.7931H117.965V15.2625C117.965 14.7673 117.781 14.3782 117.413 14.0952C117.045 13.798 116.55 13.6495 115.927 13.6495C115.376 13.6495 114.923 13.7697 114.569 14.0103C114.215 14.2508 114.003 14.5762 113.932 14.9866H111.046C111.145 13.8688 111.64 13.0056 112.531 12.3972C113.423 11.7746 114.604 11.4633 116.076 11.4633C117.618 11.4633 118.807 11.8029 119.642 12.4821C120.491 13.1613 120.915 14.1447 120.915 15.4323V19.2739C120.915 19.5427 120.972 19.7267 121.085 19.8257C121.198 19.9248 121.375 19.9743 121.615 19.9743H121.955ZM117.965 17.7882H115.779C115.156 17.7882 114.668 17.9155 114.314 18.1702C113.975 18.4108 113.805 18.7574 113.805 19.2102C113.805 19.5923 113.946 19.8965 114.229 20.1229C114.527 20.3493 114.923 20.4625 115.418 20.4625C116.196 20.4625 116.812 20.2431 117.265 19.8045C117.717 19.3517 117.951 18.7504 117.965 18.0004V17.7882ZM124.62 7.04869C125.115 7.04869 125.525 7.21141 125.851 7.53685C126.176 7.84814 126.339 8.24432 126.339 8.72541C126.339 9.20649 126.176 9.60976 125.851 9.9352C125.525 10.2606 125.115 10.4234 124.62 10.4234C124.125 10.4234 123.707 10.2606 123.367 9.9352C123.042 9.60976 122.879 9.20649 122.879 8.72541C122.879 8.24432 123.042 7.84814 123.367 7.53685C123.707 7.21141 124.125 7.04869 124.62 7.04869ZM123.113 11.5907H126.105V22.5H123.113V11.5907Z" fill="black"/>
<path d="M9.10018 12.1873H9.14226C10.4719 12.1873 11.4649 13.4237 11.1787 14.7364C10.9684 15.7019 10.1184 16.3879 9.14226 16.3879H9.10018C7.78741 16.3879 6.80283 15.1768 7.05529 13.8811C7.24884 12.8987 8.10719 12.1873 9.10018 12.1873Z" fill="black"/>
<path d="M15.0142 7.46143H15.0563C16.3859 7.46143 17.3789 8.6979 17.0928 10.0106C16.8824 10.9761 16.0325 11.662 15.0563 11.662H15.0142C13.7015 11.662 12.7169 10.451 12.9694 9.15522C13.1629 8.17282 14.0213 7.46143 15.0142 7.46143Z" fill="black"/>
<path d="M8.11581 17.0566H8.15789C9.48749 17.0566 10.4805 18.2931 10.1944 19.6058C9.98399 20.5713 9.13405 21.2573 8.15789 21.2573H8.11581C6.80304 21.2573 5.81846 20.0462 6.07092 18.7504C6.26447 17.768 7.12282 17.0566 8.11581 17.0566Z" fill="black"/>
<path d="M13.9752 12.3306H14.0173C15.3469 12.3306 16.3399 13.567 16.0537 14.8797C15.8434 15.8452 14.9934 16.5312 14.0173 16.5312H13.9752C12.6624 16.5312 11.6778 15.3201 11.9303 14.0244C12.1238 13.042 12.9822 12.3306 13.9752 12.3306Z" fill="black"/>
<path d="M20.2252 7.479H20.2673C21.5969 7.479 22.5899 8.71548 22.3037 10.0282C22.0934 10.9936 21.2434 11.6796 20.2673 11.6796H20.2252C18.9124 11.6796 17.9278 10.4686 18.1803 9.1728C18.3738 8.1904 19.2322 7.479 20.2252 7.479Z" fill="black"/>
<path d="M10.0533 7.40967H10.0954C11.425 7.40967 12.418 8.64614 12.1319 9.95883C11.9215 10.9243 11.0715 11.6103 10.0954 11.6103H10.0533C8.74054 11.6103 7.75596 10.3992 8.00842 9.10347C8.20197 8.12106 9.06032 7.40967 10.0533 7.40967Z" fill="black"/>
</svg>
