<svg width="28" height="28" viewBox="0 0 28 28" fill="none" xmlns="http://www.w3.org/2000/svg">
<rect x="1" y="1" width="25.9998" height="25.9998" rx="12.9999" stroke="black" stroke-width="0.846899" stroke-miterlimit="5.02"/>
<path d="M9.9108 7.07617H9.95236C11.2658 7.07617 12.2467 8.31265 11.9641 9.62536C11.7563 10.5908 10.9167 11.2768 9.95236 11.2768H9.9108C8.61397 11.2768 7.64136 10.0657 7.89075 8.76998C8.08194 7.78757 8.92987 7.07617 9.9108 7.07617Z" fill="black"/>
<path d="M15.0749 7.07617H15.1164C16.4299 7.07617 17.4108 8.31265 17.1282 9.62536C16.9203 10.5908 16.0807 11.2768 15.1164 11.2768H15.0749C13.778 11.2768 12.8054 10.0657 13.0548 8.76998C13.246 7.78757 14.0939 7.07617 15.0749 7.07617Z" fill="black"/>
<path d="M20.2311 7.07617H20.2727C21.5861 7.07617 22.5671 8.31265 22.2844 9.62536C22.0766 10.5908 21.237 11.2768 20.2727 11.2768H20.2311C18.9343 11.2768 17.9617 10.0657 18.2111 8.76998C18.4023 7.78757 19.2502 7.07617 20.2311 7.07617Z" fill="black"/>
<path d="M9.9108 12.2769H9.95236C11.2658 12.2769 12.2467 13.5133 11.9641 14.826C11.7563 15.7915 10.9167 16.4775 9.95236 16.4775H9.9108C8.61397 16.4775 7.64136 15.2664 7.89075 13.9707C8.08194 12.9883 8.92987 12.2769 9.9108 12.2769Z" fill="black"/>
<path d="M15.0749 12.2769H15.1164C16.4299 12.2769 17.4108 13.5133 17.1282 14.826C16.9203 15.7915 16.0807 16.4775 15.1164 16.4775H15.0749C13.778 16.4775 12.8054 15.2664 13.0548 13.9707C13.246 12.9883 14.0939 12.2769 15.0749 12.2769Z" fill="black"/>
<path d="M9.9108 17.4775H9.95236C11.2658 17.4775 12.2467 18.714 11.9641 20.0267C11.7563 20.9922 10.9167 21.6782 9.95236 21.6782H9.9108C8.61398 21.6782 7.64136 20.4671 7.89075 19.1714C8.08194 18.1889 8.92987 17.4775 9.9108 17.4775Z" fill="black"/>
</svg>
