<svg width="121" height="46" viewBox="0 0 121 46" fill="none" xmlns="http://www.w3.org/2000/svg">
<mask id="mask0_848_4856" style="mask-type:luminance" maskUnits="userSpaceOnUse" x="0" y="0" width="46" height="46">
<path d="M22.8899 46C35.5316 46 45.7798 35.7518 45.7798 23.1101C45.7798 10.4684 35.5316 0.220215 22.8899 0.220215C10.2482 0.220215 0 10.4684 0 23.1101C0 35.7518 10.2482 46 22.8899 46Z" fill="white"/>
</mask>
<g mask="url(#mask0_848_4856)">
<path d="M55.2084 0.220215H-9.42188V46H55.2084V0.220215Z" fill="#024DA1"/>
<path d="M22.8775 5.69678L22.3548 7.42933L20.6484 7.42725L22.0326 8.48477L21.5137 10.1948L22.8775 9.13734L24.2413 10.1948L23.724 8.4856L25.1074 7.42725H23.4002L22.8775 5.69678Z" fill="#FFF100"/>
<path d="M28.584 12.2111L29.9495 11.1519L31.3116 12.2111L30.7935 10.5014L32.1785 9.44183H30.4693L29.9478 7.71094L29.4259 9.44557L27.7188 9.44183L29.1021 10.5014L28.584 12.2111Z" fill="#FFF100"/>
<path d="M35.0962 16.6285L36.4601 17.6856L35.9403 15.9759L37.3253 14.9201H35.6198L35.0962 13.1875L34.5731 14.9221L32.8672 14.9201L34.2526 15.9759L33.7324 17.6856L35.0962 16.6285Z" fill="#FFF100"/>
<path d="M36.9791 24.1178L38.3429 25.1774L37.8247 23.4673L39.2098 22.4098H37.5026L36.9791 20.6772L36.4572 22.4119L34.75 22.4098L36.135 23.4673L35.6169 25.1774L36.9791 24.1178Z" fill="#FFF100"/>
<path d="M35.0962 28.209L35.6198 29.9415H37.3253L35.9403 30.9991L36.4601 32.7091L35.0962 31.65L33.7324 32.7091L34.2526 30.9991L32.8672 29.9415L34.5731 29.9436L35.0962 28.209Z" fill="#FFF100"/>
<path d="M29.9322 33.707L30.4537 35.4379H32.1612L30.7758 36.4954L31.296 38.2051L29.9322 37.148L28.5684 38.2051L29.0865 36.4954L27.7031 35.4379L29.4086 35.4396L29.9322 33.707Z" fill="#FFF100"/>
<path d="M22.9009 35.6987L23.4224 37.4296H25.13L23.7449 38.4867L24.2648 40.1968L22.9009 39.1397L21.5371 40.1968L22.0553 38.4867L20.6719 37.4296L22.3774 37.4313L22.9009 35.6987Z" fill="#FFF100"/>
<path d="M15.8306 33.707L16.3521 35.4379H18.0597L16.6742 36.4954L17.1944 38.2051L15.8306 37.148L14.4668 38.2051L14.9849 36.4954L13.6016 35.4379L15.3071 35.4396L15.8306 33.707Z" fill="#FFF100"/>
<path d="M10.6587 28.2104L11.1802 29.9413H12.8878L11.5028 30.9989L12.0226 32.7089L10.6587 31.6514L9.29493 32.7089L9.81307 30.9989L8.42969 29.9413L10.1352 29.943L10.6587 28.2104Z" fill="#FFF100"/>
<path d="M8.77593 20.6982L9.29782 22.4291H11.005L9.61995 23.4862L10.1398 25.1963L8.77593 24.1392L7.41211 25.1963L7.93026 23.4862L6.54688 22.4291L8.25238 22.4308L8.77593 20.6982Z" fill="#FFF100"/>
<path d="M10.6587 13.209L11.1802 14.9399H12.8878L11.5028 15.9974L12.0226 17.7075L10.6587 16.65L9.29493 17.7075L9.81307 15.9974L8.42969 14.9399L10.1352 14.942L10.6587 13.209Z" fill="#FFF100"/>
<path d="M15.8228 7.71094L16.3443 9.44183H18.0519L16.6668 10.4993L17.1866 12.2094L15.8228 11.1519L14.459 12.2094L14.9771 10.4993L13.5938 9.44183L15.2993 9.44349L15.8228 7.71094Z" fill="#FFF100"/>
</g>
<g clip-path="url(#clip0_848_4856)">
<path d="M97.2805 46C109.922 46 120.17 35.7518 120.17 23.1101C120.17 10.4684 109.922 0.220215 97.2805 0.220215C84.6388 0.220215 74.3906 10.4684 74.3906 23.1101C74.3906 35.7518 84.6388 46 97.2805 46Z" fill="#F0F0F0"/>
<path d="M96.2812 23.1105H120.166C120.166 21.0445 119.891 19.043 119.378 17.1392H96.2812V23.1105Z" fill="#D80027"/>
<path d="M96.2812 11.1661H116.807C115.405 8.87965 113.614 6.85863 111.525 5.19482H96.2812V11.1661Z" fill="#D80027"/>
<path d="M97.2798 45.9995C102.667 45.9995 107.618 44.1375 111.528 41.0234H83.0312C86.9413 44.1375 91.8928 45.9995 97.2798 45.9995Z" fill="#D80027"/>
<path d="M77.7508 35.0509H116.811C117.936 33.2153 118.809 31.2089 119.382 29.0796H75.1797C75.7535 31.2089 76.6259 33.2153 77.7508 35.0509Z" fill="#D80027"/>
<path d="M84.9937 3.79479H87.0796L85.1393 5.2044L85.8805 7.48525L83.9403 6.07565L82.0001 7.48525L82.6403 5.51484C80.9319 6.93786 79.4346 8.60507 78.2007 10.4627H78.8691L77.634 11.36C77.4416 11.681 77.257 12.0071 77.0802 12.338L77.67 14.1532L76.5696 13.3537C76.2961 13.9332 76.0459 14.5258 75.8211 15.1307L76.4708 17.1307H78.8691L76.9288 18.5403L77.67 20.8211L75.7298 19.4115L74.5676 20.2559C74.4512 21.191 74.3906 22.1435 74.3906 23.1101H97.2805C97.2805 10.4684 97.2805 8.9781 97.2805 0.220215C92.7587 0.220215 88.5435 1.53191 84.9937 3.79479ZM85.8805 20.8211L83.9403 19.4115L82.0001 20.8211L82.7412 18.5403L80.801 17.1307H83.1992L83.9403 14.8498L84.6813 17.1307H87.0796L85.1393 18.5403L85.8805 20.8211ZM85.1393 11.8723L85.8805 14.1532L83.9403 12.7436L82.0001 14.1532L82.7412 11.8723L80.801 10.4627H83.1992L83.9403 8.18187L84.6813 10.4627H87.0796L85.1393 11.8723ZM94.091 20.8211L92.1508 19.4115L90.2106 20.8211L90.9517 18.5403L89.0115 17.1307H91.4097L92.1508 14.8498L92.8918 17.1307H95.2901L93.3498 18.5403L94.091 20.8211ZM93.3498 11.8723L94.091 14.1532L92.1508 12.7436L90.2106 14.1532L90.9517 11.8723L89.0115 10.4627H91.4097L92.1508 8.18187L92.8918 10.4627H95.2901L93.3498 11.8723ZM93.3498 5.2044L94.091 7.48525L92.1508 6.07565L90.2106 7.48525L90.9517 5.2044L89.0115 3.79479H91.4097L92.1508 1.51394L92.8918 3.79479H95.2901L93.3498 5.2044Z" fill="#0052B4"/>
</g>
<defs>
<clipPath id="clip0_848_4856">
<rect width="45.7798" height="45.7798" fill="white" transform="translate(74.3906 0.220215)"/>
</clipPath>
</defs>
</svg>
