<svg
  width="21"
  height="21"
  viewBox="0 0 21 21"
  fill="none"
  xmlns="http://www.w3.org/2000/svg"
>
  <path
    d="M1.125 7.41699H19.875M7.375 7.41699L7.375 19.917M6.125 1.16699H14.875C16.6252 1.16699 17.5002 1.16699 18.1687 1.5076C18.7567 1.8072 19.2348 2.28527 19.5344 2.87327C19.875 3.54175 19.875 4.41683 19.875 6.16699V14.917C19.875 16.6672 19.875 17.5422 19.5344 18.2107C19.2348 18.7987 18.7567 19.2768 18.1687 19.5764C17.5002 19.917 16.6252 19.917 14.875 19.917H6.125C4.37484 19.917 3.49975 19.917 2.83128 19.5764C2.24327 19.2768 1.76521 18.7987 1.4656 18.2107C1.125 17.5422 1.125 16.6672 1.125 14.917V6.16699C1.125 4.41683 1.125 3.54175 1.4656 2.87327C1.76521 2.28527 2.24327 1.8072 2.83128 1.5076C3.49975 1.16699 4.37484 1.16699 6.125 1.16699Z"
    stroke="url(#paint0_linear_1055_48)"
    stroke-width="2"
    stroke-linecap="round"
    stroke-linejoin="round"
  />
  <defs>
    <linearGradient
      id="paint0_linear_1055_48"
      x1="10.5"
      y1="1.16699"
      x2="10.5"
      y2="19.917"
      gradientUnits="userSpaceOnUse"
    >
      <stop stop-color="#3691FF" />
      <stop offset="1" stop-color="#031EE5" />
    </linearGradient>
  </defs>
</svg>
