<svg
  width="19"
  height="19"
  viewBox="0 0 19 19"
  fill="none"
  xmlns="http://www.w3.org/2000/svg"
>
  <path
    d="M10.1052 6.68392V8.7797H12.6116C13.3114 8.7797 13.9825 9.05769 14.4774 9.55251C14.9722 10.0473 15.2502 10.7185 15.2502 11.4182V12.767C15.2502 13.9334 14.7868 15.052 13.962 15.8768C13.1373 16.7015 12.0187 17.1649 10.8523 17.1649H10.0412C8.85202 17.1649 7.74416 16.5652 7.09368 15.5692L4.57812 11.712L4.7875 11.1774C4.87487 10.954 5.007 10.751 5.17576 10.5806C5.34452 10.4102 5.54634 10.2762 5.76882 10.1867C5.9913 10.0972 6.22973 10.0542 6.46945 10.0602C6.70917 10.0663 6.94512 10.1213 7.16279 10.222L7.43722 10.348V6.68392C7.44681 6.33649 7.59156 6.00651 7.84069 5.76417C8.08982 5.52182 8.42366 5.38623 8.77122 5.38623C9.11878 5.38623 9.45262 5.52182 9.70175 5.76417C9.95088 6.00651 10.0956 6.33649 10.1052 6.68392Z"
    fill="url(#paint0_linear_848_4904)"
  />
  <path
    fill-rule="evenodd"
    clip-rule="evenodd"
    d="M8.74436 3.06238C6.43616 3.06238 4.57312 4.91626 4.57312 7.19195C4.57312 7.67473 4.65647 8.13719 4.80994 8.5661L3.73257 8.95029C3.53159 8.38587 3.42913 7.79109 3.42969 7.19195C3.42969 4.27493 5.81413 1.91895 8.74538 1.91895C11.6746 1.91895 14.059 4.27493 14.059 7.19195H12.9156C12.9156 4.91525 11.0536 3.06238 8.74436 3.06238Z"
    fill="url(#paint1_linear_848_4904)"
  />
  <defs>
    <linearGradient
      id="paint0_linear_848_4904"
      x1="9.91414"
      y1="5.38623"
      x2="9.91414"
      y2="17.1649"
      gradientUnits="userSpaceOnUse"
    >
      <stop stop-color="#3691FF" />
      <stop offset="1" stop-color="#031EE5" />
    </linearGradient>
    <linearGradient
      id="paint1_linear_848_4904"
      x1="8.74436"
      y1="1.91895"
      x2="8.74436"
      y2="8.95029"
      gradientUnits="userSpaceOnUse"
    >
      <stop stop-color="#3691FF" />
      <stop offset="1" stop-color="#031EE5" />
    </linearGradient>
  </defs>
</svg>
