<svg width="18" height="19" viewBox="0 0 18 19" fill="none" xmlns="http://www.w3.org/2000/svg">
<path d="M5.44444 1.54199H3.84444C2.8488 1.54199 2.35097 1.54199 1.97068 1.73576C1.63617 1.9062 1.36421 2.17817 1.19377 2.51268C1 2.89296 1 3.39079 1 4.38644V5.98644M5.44444 17.542H3.84444C2.8488 17.542 2.35097 17.542 1.97068 17.3482C1.63617 17.1778 1.36421 16.9058 1.19377 16.5713C1 16.191 1 15.6932 1 14.6975V13.0975M17 5.98644V4.38644C17 3.39079 17 2.89296 16.8062 2.51268C16.6358 2.17817 16.3638 1.9062 16.0293 1.73576C15.649 1.54199 15.1512 1.54199 14.1556 1.54199H12.5556M17 13.0975V14.6975C17 15.6932 17 16.191 16.8062 16.5713C16.6358 16.9058 16.3638 17.1778 16.0293 17.3482C15.649 17.542 15.1512 17.542 14.1556 17.542H12.5556M12.5556 9.54199C12.5556 11.5057 10.9637 13.0975 9 13.0975C7.03632 13.0975 5.44444 11.5057 5.44444 9.54199C5.44444 7.57831 7.03632 5.98644 9 5.98644C10.9637 5.98644 12.5556 7.57831 12.5556 9.54199Z" stroke="url(#paint0_linear_1055_94)" stroke-width="2.37037" stroke-linecap="round" stroke-linejoin="round"/>
<defs>
<linearGradient id="paint0_linear_1055_94" x1="9" y1="1.54199" x2="9" y2="17.542" gradientUnits="userSpaceOnUse">
<stop stop-color="#3691FF"/>
<stop offset="1" stop-color="#031EE5"/>
</linearGradient>
</defs>
</svg>
