<svg
  width="22"
  height="23"
  viewBox="0 0 22 23"
  fill="none"
  xmlns="http://www.w3.org/2000/svg"
>
  <path
    d="M20.75 21.292H2.98333C2.37661 21.292 2.07325 21.292 1.84151 21.1739C1.63767 21.0701 1.47194 20.9043 1.36808 20.7005C1.25 20.4687 1.25 20.1654 1.25 19.5587V1.79199M20.75 6.12533L14.8628 12.0125C14.6483 12.227 14.5411 12.3343 14.4174 12.3744C14.3086 12.4098 14.1914 12.4098 14.0826 12.3744C13.9589 12.3343 13.8517 12.227 13.6372 12.0125L11.6128 9.98815C11.3983 9.77364 11.2911 9.66639 11.1674 9.6262C11.0586 9.59085 10.9414 9.59085 10.8326 9.6262C10.7089 9.66639 10.6017 9.77364 10.3872 9.98815L5.58333 14.792M20.75 6.12533H16.4167M20.75 6.12533V10.4587"
    stroke="url(#paint0_linear_1055_2)"
    stroke-width="2"
    stroke-linecap="round"
    stroke-linejoin="round"
  />
  <defs>
    <linearGradient
      id="paint0_linear_1055_2"
      x1="11"
      y1="1.79199"
      x2="11"
      y2="21.292"
      gradientUnits="userSpaceOnUse"
    >
      <stop stop-color="#3691FF" />
      <stop offset="1" stop-color="#031EE5" />
    </linearGradient>
  </defs>
</svg>
