<svg width="243" height="54" viewBox="0 0 243 54" fill="none" xmlns="http://www.w3.org/2000/svg">
<path d="M27.0045 52.3683C41.1894 52.3683 52.6886 40.8691 52.6886 26.6841C52.6886 12.4992 41.1894 1 27.0045 1C12.8195 1 1.32031 12.4992 1.32031 26.6841C1.32031 40.8691 12.8195 52.3683 27.0045 52.3683Z" stroke="black" stroke-width="1.67323" stroke-miterlimit="5.02"/>
<path d="M62.0797 14.6841H80.5597V19.8441H68.0797V26.4041H78.3197V31.3241H68.0797V42.6841H62.0797V14.6841ZM101.859 22.1241V42.6841H96.8591L96.3391 40.2041C95.6191 41.0574 94.7791 41.7241 93.8191 42.2041C92.8591 42.6841 91.6857 42.9241 90.2991 42.9241C87.8991 42.9241 85.9391 42.1907 84.4191 40.7241C82.8991 39.2307 82.1391 36.7507 82.1391 33.2841V22.1241H87.7791V32.6041C87.7791 34.4707 88.0991 35.8841 88.7391 36.8441C89.4057 37.7774 90.4191 38.2441 91.7791 38.2441C93.1924 38.2441 94.2857 37.7241 95.0591 36.6841C95.8324 35.6174 96.2191 34.1374 96.2191 32.2441V22.1241H101.859ZM107.257 26.8841H103.857V22.1241H107.257V16.3641H112.897V22.1241H117.577V26.8841H112.897V35.8841C112.897 36.6041 113.043 37.1241 113.337 37.4441C113.657 37.7641 114.177 37.9241 114.897 37.9241H117.817V42.6841H113.137C109.217 42.6841 107.257 40.7241 107.257 36.8041V26.8841ZM139.554 22.1241V42.6841H134.554L134.034 40.2041C133.314 41.0574 132.474 41.7241 131.514 42.2041C130.554 42.6841 129.381 42.9241 127.994 42.9241C125.594 42.9241 123.634 42.1907 122.114 40.7241C120.594 39.2307 119.834 36.7507 119.834 33.2841V22.1241H125.474V32.6041C125.474 34.4707 125.794 35.8841 126.434 36.8441C127.101 37.7774 128.114 38.2441 129.474 38.2441C130.888 38.2441 131.981 37.7241 132.754 36.6841C133.528 35.6174 133.914 34.1374 133.914 32.2441V22.1241H139.554ZM155.996 22.1241V27.2441H153.756C152.156 27.2441 150.982 27.7241 150.236 28.6841C149.489 29.6441 149.116 30.9507 149.116 32.6041V42.6841H143.476V22.1241H148.596L149.116 25.2041C149.729 24.1907 150.489 23.4307 151.396 22.9241C152.302 22.3907 153.516 22.1241 155.036 22.1241H155.996ZM157.051 32.4441C157.051 30.3107 157.477 28.4574 158.331 26.8841C159.211 25.2841 160.424 24.0574 161.971 23.2041C163.544 22.3241 165.357 21.8841 167.411 21.8841C169.491 21.8841 171.317 22.2974 172.891 23.1241C174.491 23.9241 175.731 25.0707 176.611 26.5641C177.517 28.0307 177.984 29.7641 178.011 31.7641C178.011 32.4841 177.957 33.1241 177.851 33.6841H162.931V33.8441C163.064 35.3374 163.544 36.5107 164.371 37.3641C165.197 38.2174 166.331 38.6441 167.771 38.6441C168.917 38.6441 169.864 38.4041 170.611 37.9241C171.384 37.4174 171.891 36.6841 172.131 35.7241H177.691C177.477 37.0841 176.957 38.3107 176.131 39.4041C175.304 40.4974 174.211 41.3641 172.851 42.0041C171.491 42.6174 169.931 42.9241 168.171 42.9241C165.877 42.9241 163.891 42.4974 162.211 41.6441C160.557 40.7907 159.277 39.5774 158.371 38.0041C157.491 36.4041 157.051 34.5507 157.051 32.4441ZM172.371 30.0041C172.184 28.7507 171.664 27.7907 170.811 27.1241C169.984 26.4307 168.931 26.0841 167.651 26.0841C166.424 26.0841 165.384 26.4441 164.531 27.1641C163.704 27.8574 163.211 28.8041 163.051 30.0041H172.371ZM185.537 35.8441C185.617 36.7507 186.057 37.4841 186.857 38.0441C187.657 38.6041 188.683 38.8841 189.937 38.8841C191.137 38.8841 192.083 38.6974 192.777 38.3241C193.47 37.9241 193.817 37.3641 193.817 36.6441C193.817 36.1107 193.657 35.7107 193.337 35.4441C193.017 35.1774 192.563 34.9907 191.977 34.8841C191.39 34.7507 190.43 34.6041 189.097 34.4441C187.283 34.2041 185.777 33.8974 184.577 33.5241C183.377 33.1507 182.417 32.5641 181.697 31.7641C180.977 30.9641 180.617 29.8974 180.617 28.5641C180.617 27.2307 180.977 26.0574 181.697 25.0441C182.443 24.0041 183.483 23.2041 184.817 22.6441C186.15 22.0841 187.683 21.8041 189.417 21.8041C192.217 21.8307 194.47 22.4307 196.177 23.6041C197.91 24.7774 198.843 26.4041 198.977 28.4841H193.617C193.537 27.7107 193.123 27.0841 192.377 26.6041C191.657 26.0974 190.723 25.8441 189.577 25.8441C188.51 25.8441 187.643 26.0441 186.977 26.4441C186.337 26.8441 186.017 27.3774 186.017 28.0441C186.017 28.5241 186.19 28.8841 186.537 29.1241C186.883 29.3641 187.337 29.5374 187.897 29.6441C188.457 29.7507 189.39 29.8707 190.697 30.0041C193.47 30.3241 195.59 30.9241 197.057 31.8041C198.55 32.6574 199.297 34.1374 199.297 36.2441C199.297 37.5774 198.897 38.7507 198.097 39.7641C197.323 40.7774 196.23 41.5641 194.817 42.1241C193.43 42.6574 191.817 42.9241 189.977 42.9241C187.123 42.9241 184.803 42.2974 183.017 41.0441C181.23 39.7641 180.283 38.0307 180.177 35.8441H185.537ZM201.904 39.6041C201.904 38.6174 202.224 37.8174 202.864 37.2041C203.504 36.5641 204.317 36.2441 205.304 36.2441C206.264 36.2441 207.064 36.5641 207.704 37.2041C208.37 37.8441 208.704 38.6441 208.704 39.6041C208.704 40.5641 208.37 41.3641 207.704 42.0041C207.064 42.6174 206.264 42.9241 205.304 42.9241C204.317 42.9241 203.504 42.6174 202.864 42.0041C202.224 41.3641 201.904 40.5641 201.904 39.6041Z" fill="black"/>
<path d="M232.466 37.9241V42.6841H229.586C226.999 42.6841 225.732 41.5641 225.786 39.3241C225.039 40.4974 224.119 41.3907 223.026 42.0041C221.932 42.6174 220.612 42.9241 219.066 42.9241C216.772 42.9241 214.919 42.4041 213.506 41.3641C212.119 40.2974 211.426 38.8041 211.426 36.8841C211.426 34.6974 212.226 33.0174 213.826 31.8441C215.452 30.6441 217.799 30.0441 220.866 30.0441H224.946V29.0441C224.946 28.1107 224.599 27.3774 223.906 26.8441C223.212 26.2841 222.279 26.0041 221.106 26.0041C220.066 26.0041 219.212 26.2307 218.546 26.6841C217.879 27.1374 217.479 27.7507 217.346 28.5241H211.906C212.092 26.4174 213.026 24.7907 214.706 23.6441C216.386 22.4707 218.612 21.8841 221.386 21.8841C224.292 21.8841 226.532 22.5241 228.106 23.8041C229.706 25.0841 230.506 26.9374 230.506 29.3641V36.6041C230.506 37.1107 230.612 37.4574 230.826 37.6441C231.039 37.8307 231.372 37.9241 231.826 37.9241H232.466ZM224.946 33.8041H220.826C219.652 33.8041 218.732 34.0441 218.066 34.5241C217.426 34.9774 217.106 35.6307 217.106 36.4841C217.106 37.2041 217.372 37.7774 217.906 38.2041C218.466 38.6307 219.212 38.8441 220.146 38.8441C221.612 38.8441 222.772 38.4307 223.626 37.6041C224.479 36.7507 224.919 35.6174 224.946 34.2041V33.8041ZM237.488 13.5641C238.421 13.5641 239.194 13.8707 239.808 14.4841C240.421 15.0707 240.728 15.8174 240.728 16.7241C240.728 17.6307 240.421 18.3907 239.808 19.0041C239.194 19.6174 238.421 19.9241 237.488 19.9241C236.554 19.9241 235.768 19.6174 235.128 19.0041C234.514 18.3907 234.208 17.6307 234.208 16.7241C234.208 15.8174 234.514 15.0707 235.128 14.4841C235.768 13.8707 236.554 13.5641 237.488 13.5641ZM234.648 22.1241H240.288V42.6841H234.648V22.1241Z" fill="#0074FF"/>
<path d="M17.273 23.103H17.3532C19.8893 23.103 21.7833 25.5459 21.2376 28.1395C20.8363 30.047 19.2152 31.4023 17.3532 31.4023H17.273C14.769 31.4023 12.891 29.0095 13.3725 26.4495C13.7417 24.5085 15.3789 23.103 17.273 23.103Z" fill="black"/>
<path d="M28.5542 13.7656H28.6345C31.1706 13.7656 33.0646 16.2085 32.5189 18.8021C32.1176 20.7095 30.4964 22.0649 28.6345 22.0649H28.5542C26.0502 22.0649 24.1722 19.6721 24.6538 17.1121C25.023 15.1711 26.6602 13.7656 28.5542 13.7656Z" fill="black"/>
<path d="M15.398 32.7231H15.4782C18.0143 32.7231 19.9083 35.1661 19.3626 37.7596C18.9613 39.6671 17.3402 41.0224 15.4782 41.0224H15.398C12.894 41.0224 11.016 38.6297 11.4975 36.0696C11.8667 34.1287 13.5039 32.7231 15.398 32.7231Z" fill="black"/>
<path d="M26.5855 23.3857H26.6657C29.2018 23.3857 31.0958 25.8287 30.5501 28.4222C30.1488 30.3297 28.5277 31.685 26.6657 31.685H26.5855C24.0815 31.685 22.2035 29.2923 22.685 26.7322C23.0542 24.7913 24.6914 23.3857 26.5855 23.3857Z" fill="black"/>
<path d="M38.4917 13.8003H38.572C41.1081 13.8003 43.0021 16.2432 42.4564 18.8367C42.0551 20.7442 40.4339 22.0995 38.572 22.0995H38.4917C35.9877 22.0995 34.1097 19.7068 34.5913 17.1468C34.9605 15.2058 36.5977 13.8003 38.4917 13.8003Z" fill="black"/>
<path d="M19.0933 13.6636H19.1735C21.7096 13.6636 23.6037 16.1065 23.0579 18.7C22.6566 20.6075 21.0355 21.9628 19.1735 21.9628H19.0933C16.5893 21.9628 14.7113 19.5701 15.1928 17.01C15.562 15.0691 17.1992 13.6636 19.0933 13.6636Z" fill="black"/>
</svg>
