<svg width="1267" height="269" viewBox="0 0 1267 269" fill="none" xmlns="http://www.w3.org/2000/svg">
<path d="M134.852 264.745C206.567 264.745 264.704 206.608 264.704 134.893C264.704 63.1777 206.567 5.04102 134.852 5.04102C63.1367 5.04102 5 63.1777 5 134.893C5 206.608 63.1367 264.745 134.852 264.745Z" stroke="#3E3E3E" stroke-width="8.45941" stroke-miterlimit="5.02"/>
<path d="M312.759 71.4903H410.705V98.8387H344.56V133.607H398.833V159.684H344.56V219.893H312.759V71.4903ZM523.593 110.923V219.893H497.093L494.337 206.748C490.521 211.271 486.069 214.804 480.981 217.349C475.892 219.893 469.674 221.165 462.324 221.165C449.604 221.165 439.216 217.278 431.16 209.504C423.104 201.59 419.076 188.445 419.076 170.072V110.923H448.968V166.468C448.968 176.361 450.664 183.852 454.056 188.94C457.589 193.887 462.96 196.36 470.168 196.36C477.659 196.36 483.454 193.604 487.553 188.092C491.651 182.439 493.701 174.595 493.701 164.56V110.923H523.593ZM552.2 136.151H534.18V110.923H552.2V80.3944H582.093V110.923H606.897V136.151H582.093V183.852C582.093 187.668 582.87 190.424 584.425 192.12C586.121 193.816 588.877 194.664 592.693 194.664H608.169V219.893H583.365C562.589 219.893 552.2 209.504 552.2 188.728V136.151ZM723.381 110.923V219.893H696.881L694.125 206.748C690.309 211.271 685.857 214.804 680.769 217.349C675.681 219.893 669.462 221.165 662.112 221.165C649.392 221.165 639.004 217.278 630.948 209.504C622.892 201.59 618.864 188.445 618.864 170.072V110.923H648.756V166.468C648.756 176.361 650.452 183.852 653.844 188.94C657.378 193.887 662.748 196.36 669.957 196.36C677.447 196.36 683.242 193.604 687.341 188.092C691.44 182.439 693.489 174.595 693.489 164.56V110.923H723.381ZM810.521 110.923V138.059H798.649C790.169 138.059 783.95 140.603 779.993 145.691C776.036 150.78 774.057 157.705 774.057 166.468V219.893H744.164V110.923H771.301L774.057 127.247C777.308 121.876 781.336 117.848 786.141 115.163C790.946 112.336 797.377 110.923 805.433 110.923H810.521ZM816.113 165.62C816.113 154.313 818.374 144.49 822.897 136.151C827.561 127.671 833.992 121.17 842.189 116.647C850.528 111.983 860.139 109.651 871.022 109.651C882.046 109.651 891.727 111.842 900.066 116.223C908.546 120.463 915.118 126.54 919.783 134.455C924.588 142.229 927.061 151.416 927.203 162.016C927.203 165.832 926.92 169.224 926.355 172.192H847.277V173.04C847.984 180.955 850.528 187.173 854.91 191.696C859.291 196.219 865.298 198.48 872.93 198.48C879.007 198.48 884.025 197.208 887.982 194.664C892.081 191.979 894.766 188.092 896.038 183.004H925.507C924.376 190.212 921.62 196.714 917.238 202.508C912.857 208.303 907.062 212.896 899.854 216.289C892.646 219.539 884.378 221.165 875.05 221.165C862.895 221.165 852.365 218.903 843.461 214.38C834.699 209.858 827.914 203.427 823.109 195.088C818.445 186.608 816.113 176.785 816.113 165.62ZM897.31 152.688C896.321 146.045 893.565 140.957 889.042 137.423C884.661 133.749 879.078 131.911 872.294 131.911C865.792 131.911 860.28 133.819 855.758 137.635C851.376 141.31 848.761 146.327 847.913 152.688H897.31ZM967.091 183.64C967.515 188.445 969.847 192.332 974.087 195.3C978.327 198.268 983.768 199.752 990.411 199.752C996.771 199.752 1001.79 198.763 1005.46 196.784C1009.14 194.664 1010.98 191.696 1010.98 187.88C1010.98 185.053 1010.13 182.933 1008.43 181.52C1006.74 180.107 1004.33 179.117 1001.22 178.552C998.114 177.845 993.026 177.068 985.959 176.22C976.348 174.948 968.363 173.323 962.003 171.344C955.643 169.365 950.554 166.256 946.738 162.016C942.922 157.776 941.014 152.122 941.014 145.055C941.014 137.989 942.922 131.77 946.738 126.399C950.696 120.887 956.208 116.647 963.275 113.679C970.341 110.711 978.468 109.227 987.655 109.227C1002.5 109.368 1014.44 112.548 1023.48 118.767C1032.67 124.986 1037.62 133.607 1038.32 144.631H1009.92C1009.49 140.533 1007.3 137.211 1003.34 134.667C999.527 131.982 994.58 130.639 988.503 130.639C982.85 130.639 978.256 131.699 974.723 133.819C971.331 135.939 969.635 138.766 969.635 142.299C969.635 144.843 970.553 146.751 972.391 148.023C974.228 149.295 976.631 150.214 979.599 150.78C982.567 151.345 987.514 151.981 994.439 152.688C1009.14 154.384 1020.37 157.564 1028.15 162.228C1036.06 166.75 1040.02 174.595 1040.02 185.76C1040.02 192.827 1037.9 199.046 1033.66 204.416C1029.56 209.787 1023.77 213.956 1016.28 216.925C1008.93 219.751 1000.38 221.165 990.623 221.165C975.5 221.165 963.204 217.843 953.735 211.2C944.265 204.416 939.248 195.23 938.682 183.64H967.091ZM1053.84 203.568C1053.84 198.339 1055.53 194.099 1058.93 190.848C1062.32 187.456 1066.63 185.76 1071.86 185.76C1076.95 185.76 1081.19 187.456 1084.58 190.848C1088.11 194.24 1089.88 198.48 1089.88 203.568C1089.88 208.656 1088.11 212.896 1084.58 216.289C1081.19 219.539 1076.95 221.165 1071.86 221.165C1066.63 221.165 1062.32 219.539 1058.93 216.289C1055.53 212.896 1053.84 208.656 1053.84 203.568ZM1215.82 194.664V219.893H1200.55C1186.84 219.893 1180.13 213.956 1180.41 202.084C1176.46 208.303 1171.58 213.038 1165.79 216.289C1159.99 219.539 1152.99 221.165 1144.8 221.165C1132.64 221.165 1122.82 218.409 1115.33 212.896C1107.98 207.243 1104.3 199.328 1104.3 189.152C1104.3 177.563 1108.54 168.658 1117.03 162.44C1125.65 156.08 1138.08 152.9 1154.34 152.9H1175.96V147.599C1175.96 142.653 1174.12 138.766 1170.45 135.939C1166.78 132.971 1161.83 131.487 1155.61 131.487C1150.1 131.487 1145.57 132.689 1142.04 135.091C1138.51 137.494 1136.39 140.745 1135.68 144.843H1106.85C1107.84 133.678 1112.79 125.056 1121.69 118.979C1130.59 112.76 1142.39 109.651 1157.09 109.651C1172.5 109.651 1184.37 113.043 1192.71 119.827C1201.19 126.611 1205.43 136.434 1205.43 149.295V187.668C1205.43 190.353 1206 192.191 1207.13 193.18C1208.26 194.17 1210.02 194.664 1212.43 194.664H1215.82ZM1175.96 172.828H1154.13C1147.91 172.828 1143.03 174.1 1139.5 176.644C1136.11 179.047 1134.41 182.509 1134.41 187.032C1134.41 190.848 1135.82 193.887 1138.65 196.148C1141.62 198.41 1145.57 199.54 1150.52 199.54C1158.3 199.54 1164.44 197.35 1168.97 192.968C1173.49 188.445 1175.82 182.439 1175.96 174.948V172.828ZM1242.43 65.5542C1247.38 65.5542 1251.48 67.1796 1254.73 70.4303C1257.98 73.5397 1259.61 77.4971 1259.61 82.3025C1259.61 87.1079 1257.98 91.1359 1254.73 94.3867C1251.48 97.6374 1247.38 99.2627 1242.43 99.2627C1237.49 99.2627 1233.32 97.6374 1229.93 94.3867C1226.68 91.1359 1225.05 87.1079 1225.05 82.3025C1225.05 77.4971 1226.68 73.5397 1229.93 70.4303C1233.32 67.1796 1237.49 65.5542 1242.43 65.5542ZM1227.38 110.923H1257.28V219.893H1227.38V110.923Z" fill="#3E3E3E"/>
<path d="M88.4307 116.789H88.8503C102.111 116.789 112.014 129.14 109.161 142.252C107.063 151.896 98.5859 158.748 88.8503 158.748H88.4307C75.3379 158.748 65.5184 146.651 68.0362 133.708C69.9666 123.895 78.5272 116.789 88.4307 116.789Z" fill="#3E3E3E"/>
<path d="M147.423 69.5811H147.843C161.103 69.5811 171.007 81.9318 168.153 95.0439C166.055 104.688 157.578 111.54 147.843 111.54H147.423C134.33 111.54 124.511 99.4428 127.028 86.4999C128.959 76.687 137.519 69.5811 147.423 69.5811Z" fill="#3E3E3E"/>
<path d="M78.6104 165.424H79.03C92.2906 165.424 102.194 177.775 99.3405 190.887C97.2423 200.53 88.7656 207.383 79.03 207.383H78.6104C65.5176 207.383 55.6981 195.286 58.2159 182.343C60.1463 172.53 68.7069 165.424 78.6104 165.424Z" fill="#3E3E3E"/>
<path d="M137.087 118.218H137.507C150.767 118.218 160.671 130.569 157.817 143.681C155.719 153.324 147.242 160.176 137.507 160.176H137.087C123.994 160.176 114.175 148.079 116.692 135.137C118.623 125.324 127.183 118.218 137.087 118.218Z" fill="#3E3E3E"/>
<path d="M199.392 69.7578H199.811C213.072 69.7578 222.975 82.1086 220.122 95.2206C218.024 104.864 209.547 111.717 199.811 111.717H199.392C186.299 111.717 176.479 99.6195 178.997 86.6766C180.928 76.8637 189.488 69.7578 199.392 69.7578Z" fill="#3E3E3E"/>
<path d="M97.9463 69.0635H98.3659C111.627 69.0635 121.53 81.4142 118.676 94.5263C116.578 104.17 108.102 111.022 98.3659 111.022H97.9463C84.8536 111.022 75.034 98.9252 77.5518 85.9823C79.4822 76.1694 88.0428 69.0635 97.9463 69.0635Z" fill="#3E3E3E"/>
</svg>
